<svg width="24" height="24" viewBox="0 0 24 24" fill="none" xmlns="http://www.w3.org/2000/svg">
<g clip-path="url(#clip0_1_69)">
<path d="M20.9578 5.24997C19.3547 5.27341 18.0375 6.58122 18.0047 8.18435C17.9813 9.32341 18.5906 10.3218 19.5047 10.8468V16.125C19.5047 18.8109 17.1516 21 14.2547 21C11.4422 21 9.13594 18.9328 9.00937 16.35C12.4219 15.6468 15 12.6187 15 8.99997V1.7156C15 1.18122 14.6203 0.71716 14.0953 0.614034L11.1469 0.0234095C10.5375 -0.0984655 9.94688 0.295284 9.825 0.90466L9.675 1.6406C9.55312 2.24997 9.94687 2.8406 10.5562 2.96247L11.9953 3.24841V8.93903C11.9953 11.4187 10.0172 13.4718 7.5375 13.4953C5.03438 13.5187 2.99531 11.4937 2.99531 8.99528V3.2531L4.43437 2.96716C5.04375 2.84528 5.4375 2.25466 5.31563 1.64528L5.17031 0.909347C5.04844 0.299972 4.45781 -0.093778 3.84844 0.028097L0.904687 0.609347C0.379687 0.717159 0 1.17653 0 1.7156V8.99997C0 12.6234 2.58281 15.6562 6.00469 16.35C6.12656 20.5875 9.77812 24 14.25 24C18.7969 24 22.5 20.4656 22.5 16.125V10.8468C23.3953 10.3265 24 9.36091 24 8.24997C24 6.57653 22.6313 5.22653 20.9578 5.24997ZM21 8.99997C20.5875 8.99997 20.25 8.66247 20.25 8.24997C20.25 7.83747 20.5875 7.49997 21 7.49997C21.4125 7.49997 21.75 7.83747 21.75 8.24997C21.75 8.66247 21.4125 8.99997 21 8.99997Z" fill="#3F83F8"/>
</g>
<defs>
<clipPath id="clip0_1_69">
<rect width="24" height="24" fill="white"/>
</clipPath>
</defs>
</svg>
